<?xml version="1.0" ?><svg xmlns="http://www.w3.org/2000/svg" xmlns:xlink="http://www.w3.org/1999/xlink" version="1.1" id="Layer_1" viewBox="0 0 48 48" enable-background="new 0 0 48 48" xml:space="preserve"><path d="M33,20H21.8579712C21.4108276,18.2797241,19.8587036,17,18,17c-2.2060547,0-4,1.7944336-4,4s1.7939453,4,4,4  c1.8587036,0,3.4108276-1.2797241,3.8579712-3H25v4c0,0.5527344,0.4472656,1,1,1s1-0.4472656,1-1v-4h2v2  c0,0.5522461,0.4472656,1,1,1s1-0.4477539,1-1v-2h2c0.5527344,0,1-0.4477539,1-1S33.5527344,20,33,20z M18,23  c-1.1025391,0-2-0.8969727-2-2s0.8974609-2,2-2s2,0.8969727,2,2S19.1025391,23,18,23z M34,35c0,0.5527344-0.4472656,1-1,1H15  c-0.5527344,0-1-0.4472656-1-1s0.4472656-1,1-1h18C33.5527344,34,34,34.4472656,34,35z M34,30c0,0.5527344-0.4472656,1-1,1H15  c-0.5527344,0-1-0.4472656-1-1s0.4472656-1,1-1h18C33.5527344,29,34,29.4472656,34,30z M35,2H17  c-0.265625,0-0.5195313,0.1054688-0.7070313,0.2929688l-8,8C8.1054688,10.4804688,8,10.7348633,8,11v30c0,2.7568359,2.2431641,5,5,5  h22c2.7568359,0,5-2.2431641,5-5V7C40,4.2431641,37.7568359,2,35,2z M38,41c0,1.6542969-1.3457031,3-3,3H13  c-1.6542969,0-3-1.3457031-3-3V11.4140625L17.4140625,4H35c1.6542969,0,3,1.3457031,3,3V41z M17,14h-5c-0.5527344,0-1-0.4477539-1-1  s0.4472656-1,1-1h5c0.5517578,0,1-0.4487305,1-1V6c0-0.5522461,0.4472656-1,1-1s1,0.4477539,1,1v5  C20,12.6542969,18.6542969,14,17,14z"/></svg>