<?xml version="1.0" ?><svg data-name="Capa 1" id="Capa_1" viewBox="0 0 20 19.84" xmlns="http://www.w3.org/2000/svg"><path d="M14.53,3.41H13.2a.89.89,0,0,0-.78-.48h-.7v0a.61.61,0,0,0-.61-.61H8.89a.61.61,0,0,0-.61.61v0h-.7a.89.89,0,0,0-.78.48H5.47A1.64,1.64,0,0,0,3.83,5.05V15.9a1.63,1.63,0,0,0,1.64,1.64h9.06a1.63,1.63,0,0,0,1.64-1.64V5.05A1.64,1.64,0,0,0,14.53,3.41Zm.89,12.49a.89.89,0,0,1-.89.89H5.47a.89.89,0,0,1-.89-.89V5.05a.89.89,0,0,1,.89-.89H6.76a.89.89,0,0,0,.82.54h4.84a.89.89,0,0,0,.82-.54h1.29a.89.89,0,0,1,.89.89Z"/><path d="M12.39,9.21l-1.07,0a5.68,5.68,0,0,0,.34-1.82,1,1,0,0,0-1-.84A.91.91,0,0,0,10,6.8a1,1,0,0,0-.34.7,5.12,5.12,0,0,1-.42,1.42,4.32,4.32,0,0,1-1,1.13H7a.38.38,0,0,0-.38.37V14a.38.38,0,0,0,.38.37h4.83c.39,0,.88-.17,1-1,.07-.3.46-2.45.53-3a1,1,0,0,0-.26-.82A1.15,1.15,0,0,0,12.39,9.21ZM8,13.63H7.35V10.8H8Zm4.14-.38c-.08.38-.21.38-.32.38H8.75v-3A4.61,4.61,0,0,0,9.92,9.23a5.51,5.51,0,0,0,.49-1.73.4.4,0,0,1,.18-.22c.29,0,.32.16.33.23a8.82,8.82,0,0,1-.47,1.93.37.37,0,0,0,.05.34.43.43,0,0,0,.3.16l1.57,0s.31.12.28.37C12.58,10.82,12.2,12.93,12.13,13.25Z"/></svg>